<?xml version="1.0"?>
<svg xmlns="http://www.w3.org/2000/svg" height="24px" viewBox="-45 0 512 512" width="24px"><path d="m120.488281 151.710938c-16.652343 0-30.226562 13.445312-30.4375 30.050781h60.875c-.210937-16.605469-13.785156-30.050781-30.4375-30.050781zm0 0" fill="#595757"/><path d="m135.511719 106.6875c0-8.285156-6.738281-15.023438-15.023438-15.023438-8.285156 0-15.023437 6.738282-15.023437 15.023438s6.738281 15.023438 15.023437 15.023438c8.285157 0 15.023438-6.738282 15.023438-15.023438zm0 0" fill="#595757"/><path d="m323.921875 413.992188v89.222656l89.21875-89.222656zm0 0" fill="#595757"/><path d="m293.921875 383.992188h128.007813v-383.992188h-421.929688v512h293.921875zm-218.457031-277.304688c0-24.824219 20.195312-45.023438 45.023437-45.023438 24.824219 0 45.023438 20.199219 45.023438 45.023438 0 10.109375-3.351563 19.449219-8.996094 26.96875 14.804687 11.027344 24.410156 28.660156 24.410156 48.496094v29.609375h-120.878906v-29.609375c0-19.835938 9.605469-37.46875 24.410156-48.496094-5.644531-7.519531-8.992187-16.859375-8.992187-26.96875zm-15.429688 285.214844v-30h113.261719v30zm113.261719 30.050781v30h-113.261719v-30zm188.59375-90.097656h-301.855469v-30h301.855469zm0-60.046875h-301.855469v-30h301.855469zm0-60.046875h-150.925781v-30h150.925781zm0-60.050781h-150.925781v-30h150.925781zm0-60.046876h-150.925781v-30h150.925781zm0 0" fill="#595757"/></svg>
